ply
format ascii 1.0
comment VCGLIB generated
comment TextureFile jenga.png
element vertex 24
property float x
property float y
property float z
property uchar red
property uchar green
property uchar blue
property uchar alpha
element face 12
property list uchar int vertex_indices
property list uchar float texcoord
end_header
-0.075 -0.025 0.015 182 108 24 0 
0.075 -0.025 0.015 0 0 0 0 
0.075 0.025 0.015 0 0 0 0 
-0.075 0.025 0.015 187 112 25 0 
0.075 0.025 -0.015 0 0 0 0 
0.075 -0.025 -0.015 0 0 0 0 
-0.075 -0.025 -0.015 0 0 0 0 
-0.075 0.025 -0.015 0 0 0 0 
-0.075 0.025 0.015 206 126 27 0 
-0.075 0.025 -0.015 0 0 0 0 
-0.075 -0.025 -0.015 0 0 0 0 
-0.075 -0.025 0.015 182 108 24 0 
0.075 -0.025 -0.015 0 0 0 0 
0.075 0.025 -0.015 0 0 0 0 
0.075 0.025 0.015 190 114 25 0 
0.075 -0.025 0.015 187 112 25 0 
0.075 -0.025 0.015 0 0 0 0 
-0.075 -0.025 0.015 0 0 0 0 
-0.075 -0.025 -0.015 0 0 0 0 
0.075 -0.025 -0.015 0 0 0 0 
-0.075 0.025 -0.015 0 0 0 0 
-0.075 0.025 0.015 206 126 27 0 
0.075 0.025 0.015 190 114 25 0 
0.075 0.025 -0.015 0 0 0 0 
3 0 1 2 6 0 1 0 0.75 0.25 0.75 
3 0 2 3 6 0 1 0.25 0.75 0.25 1 
3 4 5 6 6 0.5 0.75 0.25 0.75 0.25 0.5 
3 7 4 6 6 0.5 0.5 0.5 0.75 0.25 0.5 
3 8 9 10 6 0.75 1 0.75 0.75 1 0.75 
3 11 8 10 6 1 1 0.75 1 1 0.75 
3 12 13 14 6 0.25 0.75 0.5 0.75 0.5 1 
3 12 14 15 6 0.25 0.75 0.5 1 0.25 1 
3 16 17 18 6 0.25 0.75 0 0.75 0 0.5 
3 19 16 18 6 0.25 0.5 0.25 0.75 0 0.5 
3 20 21 22 6 0.75 0.75 0.75 1 0.5 1 
3 20 22 23 6 0.75 0.75 0.5 1 0.5 0.75 
